<?xml version="1.0" encoding="UTF-8" standalone="no"?>
<svg
   viewBox="0 0 100 100"
   version="1.1"
   id="svg1"
   xmlns="http://www.w3.org/2000/svg">
  <defs
     id="defs1">
    <clipPath
       clipPathUnits="userSpaceOnUse"
       id="clipPath9">
      <circle
         style="display:none;fill:#000000;stroke-width:0.113528"
         id="circle9"
         cx="0"
         cy="0"
         r="25"
         d="M 105,75 A 25,25 0 0 1 80,100 25,25 0 0 1 55,75 25,25 0 0 1 80,50 25,25 0 0 1 105,75 Z" />
      <path
         id="lpe_path-effect9"
         style="fill:#000000;stroke-width:0.113528"
         class="powerclip"
         d="m 45,45 h 60 v 60 H 45 Z m 60,30 A 25,25 0 0 0 80,50 25,25 0 0 0 55,75 25,25 0 0 0 80,100 25,25 0 0 0 105,75 Z" />
    </clipPath>
  </defs>
  <g id="layer1">
    <path
       style="fill:#000000;stroke-width:0.113528"
       id="path1"
       clip-path="url(#clipPath9)"
       d="M 100,75 A 25,25 0 0 1 75,100 25,25 0 0 1 50,75 25,25 0 0 1 75,50 25,25 0 0 1 100,75 Z" />
  </g>
</svg>
